<svg width="17" height="17" viewBox="0 0 17 17" fill="none" xmlns="http://www.w3.org/2000/svg">
<path fill-rule="evenodd" clip-rule="evenodd" d="M14.0553 14.1568C14.8886 13.3235 15.0749 12.0885 14.6149 11.0752C15.6569 10.6839 16.3984 9.67863 16.3984 8.5C16.3984 7.32138 15.6569 6.31609 14.6149 5.92484C15.0749 4.91147 14.8886 3.6765 14.0553 2.84316C13.2219 2.00978 11.987 1.82353 10.9736 2.2835C10.5823 1.24156 9.57706 0.5 8.39844 0.5C7.21981 0.5 6.21453 1.24156 5.82328 2.2835C4.80994 1.82356 3.57497 2.00981 2.74159 2.84316C1.90825 3.6765 1.72197 4.91147 2.18194 5.92484C1.14 6.31609 0.398438 7.32138 0.398438 8.5C0.398438 9.67863 1.14 10.6839 2.18194 11.0752C1.722 12.0885 1.90825 13.3235 2.74159 14.1568C3.57275 14.988 4.80597 15.1783 5.82328 14.7165C6.21453 15.7584 7.21981 16.5 8.39844 16.5C9.57706 16.5 10.5823 15.7584 10.9736 14.7165C11.9918 15.1787 13.2248 14.9873 14.0553 14.1568ZM12.2813 7.22885L7.68129 12.3694C7.52509 12.544 7.27181 12.544 7.11559 12.3693L4.51559 9.46383C4.35939 9.28928 4.35939 9.00624 4.51559 8.83169L5.08126 8.19955C5.23749 8.02499 5.49076 8.02499 5.64696 8.19955L7.39844 10.1568L11.1499 5.96457C11.3061 5.78998 11.5594 5.79001 11.7156 5.96457L12.2813 6.59671C12.4375 6.77126 12.4375 7.0543 12.2813 7.22885Z" fill="#F98817"/>
</svg>
